<svg xmlns="http://www.w3.org/2000/svg" viewBox="0 0 499 86.05"><defs><style>.cls-1{fill:#002d5d;}.cls-2{fill:#009845;}</style></defs><title>Asset 1</title><g id="Layer_2" data-name="Layer 2"><g id="Layer_1-2" data-name="Layer 1"><path class="cls-1" d="M38.26,48.5,67.2.13,110.58,0V40.24s-19-.43-28.91-.14v-12s-5.88,9.65-9.28,15.3l85.7,5.14Z"/><path class="cls-2" d="M0,70.57c1.9-3.48,9.47-17.13,9.47-17.13H162S27.15,54.91,0,70.57Z"/><path class="cls-2" d="M15.85,86s5-8.18,9.55-16c67.83-10,121.13-9.26,121.13-9.26S57.43,68.29,54,74.16c-3.34,5.61-7,11.87-7,11.87Z"/><path class="cls-2" d="M110.64,70.72V86.05H81.69V73.91S92.53,71.61,110.64,70.72Z"/><path class="cls-1" d="M121.3,11h11.12l-6.06,29.13H115.24ZM133,7.84H121.92L123.55,0h11.11Z"/><path class="cls-1" d="M137.81,11h10.77l-1,4.54h.11c2-3.08,5.62-5.27,8.48-5.27a11.85,11.85,0,0,1,3.93.45l-2.08,9.82a12.52,12.52,0,0,0-4.26-.73c-4.72,0-7.08,2-8.37,8.14l-2.53,12.18H131.8Z"/><path class="cls-1" d="M179.43,0h17.24l.5,21.56h.11L208.23,0H225.8l-8.53,40.08H205.82L212,12.5h-.11L198.74,40.12h-9.15L188.13,12.5H188l-5.5,27.62H171.07Z"/><path class="cls-1" d="M254.48,31.65c-.73,2-2.92,9.2-15.49,9.2-10.33,0-14.48-5.78-14.48-12.85,0-13.36,10.21-17.74,17.45-17.74,6.46,0,14.26,3.59,14.26,12.74a17.89,17.89,0,0,1-.56,5.05H234.89c0,3.09,1.07,5.67,4.55,5.67,2.41,0,3.82-1.06,4.38-2.07Zm-8.75-9.38a6.15,6.15,0,0,0,.11-.95c0-2.19-1.41-3.93-4.21-3.93-3,0-4.94,1.79-5.78,4.88Z"/><path class="cls-1" d="M279.85,22.05c.06-1.41-.16-2.31-.78-2.87a3.7,3.7,0,0,0-2.81-.84c-4.83,0-6.12,6.35-6.12,9.1s.62,5.33,3.82,5.33c3,0,4.27-2.64,4.88-4.27h10.67c-1.91,8.31-7.24,12.35-15.66,12.35C261.5,40.85,259,33,259,27.55c0-9.94,6.45-17.29,17.57-17.29,8.08,0,14.09,3.65,13.92,11.79Z"/><path class="cls-1" d="M298.15,0h11.12l-3,14.65h.11A10.94,10.94,0,0,1,315,10.26c5.11,0,9.49,2.13,9.49,7.86a31.63,31.63,0,0,1-.79,5.55l-3.53,16.45H309l2.87-13.36a34.17,34.17,0,0,0,.89-4.83c0-1.85-1.34-2.8-3.14-2.8-3.54,0-4.71,2.52-5.39,5.56L301,40.12H289.9Z"/><path class="cls-1" d="M329.64,19.8c1.74-7.75,7.75-9.54,14.88-9.54,5.28,0,14.15.67,14.15,7.74,0,4.55-3.54,17.63-3.54,19.54.23,2.25,0,1.23.45,2.58H344.69a7.82,7.82,0,0,1-.39-2.8h-.12c-2,2.35-5.72,3.53-9,3.53-5,0-9.43-2.19-9.43-7.74,0-7.7,5.73-9.77,14.09-10.39,3.15-.22,8.14.22,8.14-3.37,0-2-1.8-2.52-3.48-2.52-2.24,0-3.82.78-4.43,3Zm10.78,14.48c3.76,0,5.28-2.75,5.95-7.07a16,16,0,0,1-5.89,1.29c-1.85.17-3.59,1.12-3.59,3.26S338.63,34.28,340.42,34.28Z"/><path class="cls-1" d="M366,11h10.72l-.84,3.7H376a11.85,11.85,0,0,1,9-4.43c5.11,0,9.49,2.13,9.49,7.86a31.63,31.63,0,0,1-.79,5.55l-3.54,16.45H379.1L382,26.76a33,33,0,0,0,.9-4.83c0-1.85-1.35-2.8-3.14-2.8-3.54,0-4.72,2.52-5.39,5.56l-3.26,15.43H360Z"/><path class="cls-1" d="M401.83,11H413l-6.07,29.13H395.77Zm11.73-3.15H402.45L404.08,0h11.11Z"/><path class="cls-1" d="M434.73,22.05c0-1.41-.17-2.31-.79-2.87a3.7,3.7,0,0,0-2.81-.84c-4.82,0-6.12,6.35-6.12,9.1s.62,5.33,3.82,5.33c3,0,4.27-2.64,4.89-4.27h10.66c-1.91,8.31-7.24,12.35-15.66,12.35-12.35,0-14.82-7.86-14.82-13.3,0-9.94,6.46-17.29,17.57-17.29,8.08,0,14.09,3.65,13.92,11.79Z"/><path class="cls-1" d="M449,19.8c1.74-7.75,7.75-9.54,14.88-9.54,5.28,0,14.15.67,14.15,7.74,0,4.55-3.54,17.63-3.54,19.54.22,2.25,0,1.23.45,2.58H464a8.05,8.05,0,0,1-.4-2.8h-.11c-2,2.35-5.72,3.53-9,3.53-5,0-9.43-2.19-9.43-7.74,0-7.7,5.73-9.77,14.09-10.39,3.14-.22,8.14.22,8.14-3.37,0-2-1.8-2.52-3.48-2.52-2.25,0-3.82.78-4.44,3Zm10.78,14.48c3.76,0,5.28-2.75,5.95-7.07a16,16,0,0,1-5.89,1.29c-1.86.17-3.6,1.12-3.6,3.26S458,34.28,459.76,34.28Z"/><path class="cls-1" d="M487.88,0H499l-8.31,40.08H479.58Z"/><path class="cls-2" d="M305,57.16c-.11,2.37,1.28,3.22,3.5,3.22,1.45,0,3.39-.66,3.39-2.43s-1.77-2.15-3.65-2.66c-1.34-.37-4.16-1-4.16-3.95s2.07-4.73,5.67-4.73c3.18,0,5.76,1.28,5.63,4.86h-2.56c0-1.9-1-2.69-3.11-2.69-.72,0-3,.22-3,2.24,0,1.49,1.49,1.86,3.17,2.28,2.16.56,4.63,1.13,4.63,4.33,0,2.37-1.73,4.92-6.33,4.92-3.58,0-5.88-1.59-5.78-5.39Z"/><path class="cls-2" d="M332.71,46.61a6.32,6.32,0,0,1,6.65,6.65c0,6.4-4,9.29-8.06,9.29-4.35,0-6.76-2.87-6.76-6.65C324.54,49.51,328.74,46.61,332.71,46.61Zm-1.32,13.77c3.51,0,5.3-3.64,5.3-7,0-2.84-1.4-4.57-4.07-4.57-3.62,0-5.41,3.65-5.41,7C327.21,58.65,328.72,60.38,331.39,60.38Z"/><path class="cls-2" d="M351.25,47h2.67l-2.69,12.92h7.68l-.47,2.3H348.1Z"/><path class="cls-2" d="M371.4,47h2.66l-2,9.32a8.28,8.28,0,0,0-.17,1.23c0,2,1.41,2.73,3.26,2.73,2,0,3.52-.76,4.18-3.9l2-9.38H384l-2,9.55c-.53,2.52-1.61,6-7.14,6-3,0-5.62-1.49-5.62-4.68a9.35,9.35,0,0,1,.25-2Z"/><path class="cls-2" d="M393.63,47h12.54l-.49,2.3h-4.84l-2.69,12.92h-2.66l2.68-12.92h-5Z"/><path class="cls-2" d="M415.8,47h2.67l-3.18,15.22h-2.66Z"/><path class="cls-2" d="M435.25,46.61a6.32,6.32,0,0,1,6.65,6.65c0,6.4-4,9.29-8.06,9.29-4.35,0-6.76-2.87-6.76-6.65C427.08,49.51,431.28,46.61,435.25,46.61Zm-1.33,13.77c3.52,0,5.31-3.64,5.31-7,0-2.84-1.4-4.57-4.07-4.57-3.62,0-5.41,3.65-5.41,7C429.75,58.65,431.26,60.38,433.92,60.38Z"/><path class="cls-2" d="M453.73,47h2.92l4.67,11.36h0L463.68,47h2.67l-3.16,15.22h-2.92l-4.69-11.3h0l-2.3,11.3h-2.67Z"/><path class="cls-2" d="M476.73,57.16c-.11,2.37,1.28,3.22,3.5,3.22,1.45,0,3.39-.66,3.39-2.43s-1.77-2.15-3.65-2.66c-1.34-.37-4.16-1-4.16-3.95s2.07-4.73,5.67-4.73c3.18,0,5.76,1.28,5.63,4.86h-2.56c0-1.9-1-2.69-3.11-2.69-.72,0-3,.22-3,2.24,0,1.49,1.49,1.86,3.17,2.28,2.16.56,4.63,1.13,4.63,4.33,0,2.37-1.73,4.92-6.33,4.92-3.58,0-5.88-1.59-5.78-5.39Z"/><rect class="cls-2" x="164.75" y="68.06" width="319.12" height="0.25"/></g></g></svg>